<?xml version="1.0" encoding="UTF-8" standalone="no"?>
<!-- Created with Inkscape (http://www.inkscape.org/) -->

<svg
   version="1.1"
   id="svg1"
   width="605.33331"
   height="289.33334"
   viewBox="0 0 605.33331 289.33334"
   xmlns="http://www.w3.org/2000/svg"
   xmlns:svg="http://www.w3.org/2000/svg">
  <defs
     id="defs1" />
  <g
     id="g1">
    <path
       style="fill:#217867"
       d="m 75.429407,280.66032 c 0,-3.57219 3.7492,-6.60387 11.98917,-9.69468 5.617213,-2.10701 7.551193,-3.21665 10.720753,-6.1511 2.12696,-1.96918 4.48734,-4.86139 5.2453,-6.42713 1.47615,-3.04933 1.86153,-7.75916 0.63488,-7.75916 -0.40877,0 -3.03377,2.19923 -5.83333,4.88719 -6.723143,6.45512 -7.870663,7.17615 -16.090103,10.11002 -3.85,1.37423 -7.76456,2.88849 -8.69902,3.36502 -2.36964,1.20841 -6.70516,5.53153 -9.2351,9.20867 -2.46316,3.58009 -3.28666,3.90223 -2.87924,1.12633 0.24724,-1.68458 0.0319,-2.03398 -1.48906,-2.41571 -2.75974,-0.69265 -6.33459,0.0313 -11.629,2.35504 -2.6709,1.17227 -5.04598,1.9416 -5.27796,1.70962 -0.9012,-0.9012 1.69573,-4.01079 4.54743,-5.44514 1.6474,-0.82861 5.36506,-1.82353 8.26146,-2.21094 7.59726,-1.01615 11.95432,-4.09605 9.39599,-6.6418 -1.39353,-1.38667 -10.56733,-1.24782 -15.66217,0.23705 -2.01667,0.58775 -6.96667,1.84898 -11,2.80274 -6.66891,1.57699 -8.17091,1.69987 -16.57784,1.35628 -5.08448,-0.20781 -9.40223,-0.53555 -9.595,-0.72832 -0.19277,-0.19277 0.007,-0.78083 0.44316,-1.30679 0.5362,-0.64608 2.89179,-1.09585 7.26167,-1.3865 14.58934,-0.97039 18.82742,-1.65217 23.71726,-3.81541 4.65349,-2.05868 5.07832,-2.11848 20.75075,-2.92084 8.8,-0.45053 17.45435,-1.1923 19.23189,-1.64839 6.0439,-1.55077 17.019473,-13.97145 12.345923,-13.97145 -0.29332,0 -2.05181,1.34864 -3.907763,2.99699 -1.85595,1.64835 -4.04097,3.43309 -4.85559,3.96609 -3.13309,2.04997 -9.49963,3.01997 -24.407,3.71865 -8.29077,0.38857 -19.27413,1.28269 -24.40746,1.98693 -12.98279,1.78111 -25.32055,2.43071 -25.97749,1.36775 -0.89882,-1.45432 0.56657,-2.01152 8.008,-3.04496 4.01655,-0.55781 10.60282,-1.60006 14.63616,-2.31612 8.99049,-1.59611 15.85224,-2.41044 28,-3.32294 15.01294,-1.12771 19.25057,-2.3566 23.42813,-6.79398 7.919853,-8.41242 10.585273,-27.89439 12.936973,-94.55842 0.40745,-11.55 0.94199,-22.8 1.18786,-25 l 0.44703,-4 6.4291,-0.18995 c 5.02591,-0.1485 6.6482,0.0292 7.43302,0.81398 1.08864,1.08863 1.49003,6.32122 2.15114,28.04264 1.28138,42.10041 4.36025,75.76142 7.87831,86.13286 2.32832,6.864 4.45656,9.78694 8.57575,11.77797 4.39379,2.12376 8.96995,2.85472 23.82864,3.80619 6.43722,0.41221 15.00404,1.32024 19.03737,2.01784 4.03334,0.69761 11.53334,1.87777 16.66667,2.62257 5.13333,0.74481 10.44567,1.65223 11.80518,2.0165 2.36668,0.63412 3.69381,1.68264 3.0035,2.37295 -0.54588,0.54588 -20.87221,-1.00549 -31.47535,-2.4023 -5.5,-0.72455 -14.05,-1.33161 -19,-1.34903 -12.0785,-0.0425 -20.58879,-0.93168 -24.1072,-2.51877 -1.59104,-0.71769 -4.30477,-2.67604 -6.03053,-4.35189 -2.86397,-2.78116 -5.1781,-4.45822 -6.15177,-4.45822 -0.20744,0 -0.37716,0.70499 -0.37716,1.56664 0,3.34907 7.73156,11.44721 12.44901,13.03927 1.62603,0.54875 8.59414,1.03434 19.21765,1.33921 15.93011,0.45716 16.85182,0.55567 20.85616,2.22916 6.75575,2.82334 14.51119,4.4249 24.32191,5.02265 5.69613,0.34705 9.48989,0.87161 10,1.38267 0.65222,0.65343 -0.095,0.72969 -3.61872,0.36928 -4.06884,-0.41615 -4.51487,-0.33534 -5.32703,0.96514 -0.66655,1.06732 -1.54929,1.41744 -3.55935,1.41174 -5.05626,-0.0143 -18.68222,-2.52414 -24.67297,-4.54461 -3.3,-1.11298 -8.10269,-2.22568 -10.67265,-2.47268 -3.99213,-0.38368 -4.89618,-0.26808 -6.20746,0.79373 -3.20099,2.59201 0.43819,5.28517 10.22536,7.56724 6.55741,1.52899 9.13523,2.69678 10.61428,4.80842 2.12825,3.0385 1.10737,3.23009 -4.62619,0.86821 -4.68874,-1.93147 -10.97699,-2.27385 -12.56662,-0.68421 -0.88248,0.88248 -1.28428,0.66861 -3.54762,-1.88835 -4.36975,-4.93663 -8.37768,-7.49545 -15.34857,-9.79916 -11.95547,-3.95098 -18.03891,-8.00641 -21.67509,-14.44936 -2.55656,-4.52998 -4.21181,-4.59859 -4.16166,-0.17248 0.0449,3.95934 2.47847,8.67547 6.34113,12.28853 3.71414,3.47414 6.70924,5.07218 13.0235,6.94869 7.25442,2.15592 11.99383,6.03488 11.49381,9.40707 -0.21817,1.47136 -0.32364,1.43862 -3.22555,-1.00118 -4.87538,-4.09902 -9.55517,-5.47151 -11.33674,-3.32484 -0.45834,0.55226 -1.04714,1.97726 -1.30844,3.16666 l -0.47511,2.16256 -1.27319,-2.33333 c -1.25427,-2.29867 -11.49379,-12.73767 -13.77948,-14.04793 -0.95029,-0.54475 -1.29281,-0.35719 -1.80424,0.98797 -0.92087,2.42206 0.5765,7.38635 3.50936,11.63476 1.35731,1.96615 2.46784,3.84115 2.46784,4.16667 0,1.22969 -2.24134,0.51808 -4.43518,-1.40814 -2.84948,-2.50187 -4.02266,-2.50646 -6.92333,-0.0271 -4.16422,3.55939 -4.37997,2.49735 -0.6977,-3.43441 2.99041,-4.81725 4.62252,-9.57219 3.62723,-10.56748 -1.03607,-1.03607 -6.37542,2.9091 -11.57674,8.55388 -3.39878,3.68856 -4.660943,4.69955 -4.660943,3.73338 0,-1.99864 -1.31948,-2.92495 -4.16644,-2.92495 -3.16485,0 -6.0666,1.41211 -9.33356,4.54209 l -2.5,2.39518 z m -4.35214,-45.61442 c -7.24783,-3.50708 -15.9511,-10.07775 -23.96943,-18.09608 -14.75372,-14.75372 -23.30801,-30.45183 -27.78475,-50.98824 -1.3213,-6.06128 -1.52824,-8.92214 -1.54314,-21.33334 -0.015,-12.52787 0.17831,-15.24681 1.53498,-21.58541 3.0221,-14.11976 8.49826,-27.121582 16.31999,-38.747923 5.01972,-7.461381 16.95421,-19.462766 24.09885,-24.233922 5.39613,-3.603508 15.89372,-8.958871 19.16663,-9.777881 1.5743,-0.393953 1.86302,-0.217606 2.26483,1.383329 0.25329,1.009163 0.16666,2.300699 -0.19249,2.870081 -0.35916,0.569381 -3.49335,2.264787 -6.96487,3.767568 -15.04347,6.512147 -25.44386,15.488248 -34.74963,29.990825 -7.06466,11.009906 -11.78089,22.983233 -14.61777,37.110813 -2.01894,10.05428 -2.18731,29.78802 -0.32895,38.55586 2.79328,13.17889 8.53835,26.90586 15.10618,36.09391 10.95213,15.32146 23.98947,25.69154 38.90767,30.94768 2.87611,1.01334 5.3875,2.25471 5.58085,2.75859 0.19336,0.50388 -0.18132,1.50497 -0.83262,2.22465 -1.89887,2.09824 -6.45451,1.74108 -11.99633,-0.94051 z m 63.110243,1.35919 c -1.05423,-1.27027 -0.78297,-3.09603 0.57523,-3.87168 0.55,-0.3141 3.64811,-1.50799 6.88469,-2.65309 11.12821,-3.93716 25.27928,-15.19974 34.55253,-27.49973 7.03003,-9.32459 13.47561,-24.32805 16.71741,-38.91334 1.99191,-8.96183 2.13763,-29.62344 0.26922,-38.17234 -3.24503,-14.84762 -7.06301,-24.13154 -14.50056,-35.25996 -8.31284,-12.438074 -19.4464,-22.39255 -33.18911,-29.674274 -8.29916,-4.397398 -11.45072,-7.129843 -10.29208,-8.923354 1.04261,-1.613896 3.64011,-1.179352 9.5579,1.598973 18.66198,8.761554 35.2625,25.761666 44.57045,45.643314 17.7827,37.983571 13.01196,80.879981 -12.48055,112.219701 -6.85661,8.4293 -21.63758,19.86799 -31.0899,24.05982 -5.09018,2.25735 -10.35592,2.91514 -11.57523,1.44596 z m 376.48967,-6.44885 c -3.42489,-0.58561 -5.2072,-1.38547 -8.40582,-3.77232 l -2.15803,-1.61036 1.74662,-2.63932 c 0.96064,-1.45163 1.95883,-2.63933 2.21819,-2.63933 0.25936,0 2.09449,0.89457 4.07807,1.98793 3.93651,2.16981 7.56444,2.61863 8.18093,1.01207 0.70384,-1.83416 -0.24435,-2.72035 -5.74535,-5.36965 -6.21894,-2.99505 -8.13209,-5.104 -8.13209,-8.96431 0,-7.70373 12.17468,-10.60498 20.79639,-4.95582 l 1.51519,0.99279 -1.35116,2.6485 c -0.74314,1.45667 -1.50701,2.64849 -1.6975,2.64849 -0.19049,0 -1.52244,-0.6 -2.95989,-1.33333 -3.14153,-1.60269 -7.20654,-1.77281 -7.76218,-0.32484 -0.61549,1.60393 0.83382,2.75291 5.58644,4.42877 2.43749,0.8595 5.42419,2.49816 6.6371,3.64146 1.93564,1.82453 2.2053,2.49423 2.2053,5.4768 0,6.72069 -5.97437,10.27338 -14.75221,8.77247 z m -181.58111,-0.6138 c -3.27499,-0.79035 -4.76457,-1.87153 -5.9131,-4.29189 -1.35533,-2.85614 -1.37036,-4.62346 -0.0628,-7.37903 2.11865,-4.46471 9.54935,-6.54639 17.14252,-4.80241 2.40564,0.55252 2.5,0.50734 2.5,-1.19697 0,-4.3703 -5.17481,-6.21675 -11.33333,-4.04389 -1.55887,0.55 -3.05102,1 -3.3159,1 -0.26488,0 -1.033,-1.22279 -1.70693,-2.7173 -1.44105,-3.19567 -1.2896,-3.37302 4.29951,-5.03468 4.78117,-1.42145 12.9648,-1.00254 16.13041,0.8257 3.99007,2.30438 4.5907,4.49658 4.59187,16.75961 l 0.001,10.83333 h -4.33334 -4.33333 v -2.1162 -2.11621 l -1.5091,1.41772 c -3.15715,2.96599 -7.49542,3.98734 -12.15756,2.86222 z m 11.71794,-7.32958 c 1.0718,-1.07179 1.94872,-2.41023 1.94872,-2.9743 0,-1.2913 -4.84452,-2.67655 -7.25619,-2.07484 -5.75245,1.43522 -5.20522,6.99786 0.68843,6.99786 2.06252,0 3.11388,-0.44355 4.61904,-1.94872 z m 109.91792,7.08081 c -6.8242,-1.92957 -10.63587,-7.07916 -10.63587,-14.36913 0,-9.07449 5.6739,-14.39095 15.38561,-14.41639 4.46601,-0.0117 5.42602,0.21885 8.27297,1.98676 3.85051,2.39111 5.79602,5.76551 6.2113,10.77322 l 0.29523,3.56012 h -11.08256 c -6.32994,0 -11.08255,0.26395 -11.08255,0.61551 0,1.3953 3.57647,4.72228 5.70952,5.31125 2.70534,0.74698 6.63503,-0.13623 7.50243,-1.68619 0.52384,-0.93605 0.95982,-0.92123 4.35178,0.14799 2.07328,0.65355 3.7696,1.3726 3.7696,1.59789 0,0.65481 -4.85762,5.11632 -6.46927,5.94174 -2.32587,1.19121 -8.89465,1.4798 -12.22819,0.53723 z m 10.71576,-19.0979 c -1.74816,-3.26646 -6.24603,-4.31824 -10.0514,-2.3504 -1.08179,0.55941 -1.9669,1.13488 -1.9669,1.27881 0,0.14392 -0.18209,0.73622 -0.40465,1.31621 -0.35261,0.91887 0.46512,1.05452 6.35678,1.05452 6.49555,0 6.73411,-0.0511 6.06617,-1.29914 z m -173.35162,-2.77071 v -22.06985 l 10.5,0.26054 c 8.81618,0.21876 10.98462,0.48096 13.52202,1.63505 10.47622,4.7649 10.71959,19.77093 0.40598,25.03254 -1.91972,0.97937 -4.48394,1.4962 -8.58281,1.7299 l -5.84519,0.33328 v 7.5742 7.57419 h -5 -5 z m 20.36363,-3.56651 c 1.61034,-1.61033 2.1122,-4.34791 1.22225,-6.6671 -0.68061,-1.77364 -3.95031,-3.02987 -7.88611,-3.02987 h -3.69977 v 5.66667 5.66666 h 4.36363 c 3.74411,0 4.59596,-0.23232 6,-1.63636 z m 50.30303,11.30303 v -14.33333 h 4.66667 c 4.58284,0 4.66666,0.0312 4.66666,1.73573 v 1.73572 l 2.35653,-2.06906 c 2.52996,-2.22133 5.02163,-2.62756 7.94544,-1.29538 2.09435,0.95425 2.08239,1.36348 -0.16675,5.70248 -1.42309,2.7454 -2.0121,3.34317 -2.80188,2.84354 -1.6744,-1.05925 -4.59117,-0.72853 -6,0.6803 -1.20165,1.20165 -1.33334,2.22222 -1.33334,10.33333 v 9 h -4.66666 -4.66667 z m 27.85026,3.83333 -0.18359,-10.5 -2.5,-0.20691 -2.5,-0.20691 v -3.62642 -3.62642 h 2.66666 2.66667 v -5 -5 h 4.33333 4.33334 v 5 5 h 2.33333 2.33333 v 3.66666 3.66667 h -2.33333 -2.33333 v 10.66667 10.66666 h -4.31641 -4.3164 z m 18.14974,-3.83333 v -14.33333 h 4.66667 4.66666 v 2.06906 2.06906 l 2.34556,-2.05943 c 2.8202,-2.47617 4.78897,-3.04522 8.68714,-2.51091 3.915,0.53661 5.41312,1.56801 6.98565,4.80937 1.14305,2.35608 1.31499,4.12122 1.31499,13.5 v 10.78951 h -4.66667 c -3.98597,0 -4.67204,-0.17017 -4.70349,-1.16666 -0.0203,-0.64167 -0.0156,-4.61667 0.0103,-8.83334 0.0556,-9.05577 -0.45711,-11.37375 -2.76406,-12.49524 -2.07204,-1.00729 -5.55188,-0.0229 -6.55681,1.85487 -0.35893,0.67066 -0.6526,5.58911 -0.6526,10.92988 v 9.71049 h -4.66666 -4.66667 z m 72,0 v -14.33333 h 4.33333 c 4.17778,0 4.33333,0.0598 4.33333,1.66666 0,0.91667 0.3,1.66667 0.66667,1.66667 0.36667,0 0.66667,-0.27553 0.66667,-0.61229 0,-1.00926 4.36273,-3.38771 6.21398,-3.38771 1.97637,0 5.11935,1.28451 5.11935,2.09224 0,0.29969 -0.79195,2.15964 -1.75989,4.13323 -1.70956,3.48573 -1.81372,3.56802 -3.64271,2.87765 -2.8559,-1.07798 -5.42589,0.0923 -6.39311,2.91119 -0.43763,1.27546 -0.81263,5.69402 -0.83333,9.81902 l -0.0376,7.5 h -4.33333 -4.33333 z m -319.33333,-13.115 c -4.00648,-1.50993 -7.7041,-6.87342 -8.44001,-12.24248 -0.78383,-5.71865 -7.68387,-9.83702 -18.01949,-10.75512 -2.49727,-0.22183 -4.91549,-0.69898 -5.37383,-1.06033 -0.45833,-0.36135 -0.83333,-1.76797 -0.83333,-3.12582 0,-3.84242 1.99261,-5.32531 11.8075,-8.78707 13.34201,-4.70578 18.85916,-9.10083 18.85916,-15.0235 0,-4.1959 4.20818,-9.09898 8.55568,-9.96848 l 2.11099,-0.4222 -0.0362,2.91666 c -0.02,1.60417 -0.54683,4.26667 -1.17085,5.91667 -0.96997,2.56472 -1.69282,3.29019 -4.98197,5 -3.14972,1.63733 -4.26719,2.70976 -6.16249,5.9141 -1.27331,2.15276 -2.31511,4.21678 -2.31511,4.58671 0,1.08408 5.56911,0.16006 8.97631,-1.48934 7.54661,-3.65325 15.02369,-11.21394 15.02369,-15.19168 0,-4.29794 3.47789,-7.61839 9.5,-9.06995 1.80704,-0.43557 1.83334,-0.39593 1.83334,2.76287 0,4.95452 -2.24193,8.73403 -6.40553,10.79861 -1.87304,0.92878 -5.47304,3.60726 -8,5.9522 -2.52696,2.34493 -6.39447,5.60017 -8.59447,7.23386 -2.2,1.63369 -4.20407,3.29895 -4.45349,3.70056 -0.84945,1.36782 0.72305,2.93673 5.41429,5.4019 5.01235,2.63392 7.71774,5.51334 8.77385,9.33828 1.37575,4.98255 -1.82318,6.54309 -6.48706,3.1646 -2.72473,-1.97378 -4.52787,-5.28296 -5.23356,-9.60478 -0.50666,-3.10289 -3.1674,-4.63918 -10.01403,-5.78205 -5.19879,-0.8678 -14.08314,-1.18831 -14.7397,-0.53174 -0.92044,0.92043 0.51314,2.53138 4.00777,4.50363 5.90325,3.33159 16.04682,12.87618 17.65354,16.6111 2.94332,6.84192 2.42808,10.64081 -1.25495,9.25279 z M 57.003887,200.96175 c -0.58371,-1.52114 0.86448,-8.69956 2.15127,-10.66345 1.20928,-1.8456 3.4368,-3.20221 6.44051,-3.92243 1.12152,-0.26891 2.4559,-1.42636 3.43804,-2.98216 1.99398,-3.15868 4.95188,-5.68252 9.1574,-7.81362 3.65404,-1.85164 4.03827,-2.72566 1.48047,-3.36763 -2.63555,-0.66148 -14.10329,0.22119 -17.96617,1.38285 -4.16704,1.25313 -5.33004,2.47853 -6.25052,6.5859 -1.27334,5.68191 -3.85386,8.14351 -8.98427,8.57023 -3.40155,0.28292 -4.25004,-1.01805 -3.12121,-4.78574 1.22663,-4.09411 4.35227,-7.03578 9.74667,-9.17299 6.11571,-2.42298 6.35526,-3.59921 1.53445,-7.53449 -1.94395,-1.58686 -6.08445,-5.30278 -9.20112,-8.25759 -3.11667,-2.95481 -7.07596,-6.18051 -8.79844,-7.16823 -3.47244,-1.99119 -7.18431,-7.50109 -7.1953,-10.6807 -0.0226,-6.54018 10.88362,-0.31465 13.09234,7.47341 0.87733,3.0935 1.84119,4.46147 6.13775,8.71107 6.89049,6.81517 16.1072,11.30559 17.74982,8.64778 0.219,-0.35435 -0.87286,-2.77522 -2.42635,-5.37969 -2.13814,-3.58464 -3.39991,-4.97575 -5.19218,-5.72441 -4.2344,-1.76879 -7.10963,-5.15172 -8.09613,-9.52572 -1.51738,-6.72787 4.99868,-6.13191 8.99693,0.82286 0.88046,1.53152 1.80507,3.76403 2.05468,4.96114 1.16991,5.61078 7.89328,10.89932 18.01021,14.16668 5.67022,1.83124 8.9594,3.43471 10.46826,5.10324 1.28621,1.42232 2.180963,6.15703 1.38495,7.32866 -0.28965,0.42633 -2.92512,1.10155 -5.85659,1.5005 -3.67591,0.50025 -6.84131,1.46624 -10.20012,3.11281 -5.14284,2.52113 -5.81204,3.36695 -7.40123,9.35462 -0.87995,3.31545 -2.71751,5.7576 -6.26679,8.32869 -2.97412,2.15444 -4.31883,2.40988 -4.88733,0.92841 z m -18.08408,-29.00272 c -4.89752,-1.12441 -10.41859,-6.58049 -8.12626,-8.0306 1.33072,-0.8418 8.1329,-0.7912 10.42579,0.0776 4.02566,1.52528 6.22558,5.39659 4.0434,7.11537 -1.3095,1.03142 -3.96913,1.38266 -6.34293,0.83767 z m 134.509593,-0.1944 c -1.28031,-0.64715 -1.66666,-1.36207 -1.66666,-3.08413 0,-3.46195 2.39619,-4.87572 8.80441,-5.19464 2.85757,-0.14221 5.60269,0.0192 6.10026,0.35868 1.57542,1.07488 0.15115,3.43179 -3.46434,5.73288 -4.10019,2.60958 -7.45343,3.35999 -9.77367,2.18721 z m 351.10345,-3.44215 c -1.40976,-0.50265 -3.31396,-1.61448 -4.23154,-2.47074 -2.00607,-1.87198 -4.20525,-5.98434 -4.20525,-7.8636 0,-1.22927 0.41623,-1.35989 4.33333,-1.35989 3.21482,0 4.33334,0.23465 4.33334,0.90909 0,0.5 0.7909,1.7 1.75757,2.66666 3.07359,3.07359 9.68146,1.98221 11.44597,-1.89046 0.43805,-0.96142 0.79646,-3.38392 0.79646,-5.38333 0,-3.6022 -0.0118,-3.62348 -1.29788,-2.33742 -2.61843,2.61842 -5.35309,3.52512 -9.78157,3.24313 -3.43976,-0.21903 -4.66343,-0.63297 -6.72909,-2.27634 -4.03235,-3.20798 -5.65383,-7.01085 -5.37156,-12.598 0.13434,-2.65918 0.74677,-5.71774 1.42367,-7.11001 3.2325,-6.64875 14.41361,-8.88093 19.70867,-3.9346 l 2.04776,1.91289 v -1.93414 -1.93414 h 4.33333 4.33333 v 16.35474 c 0,20.43678 -0.47905,22.02388 -7.66667,25.3999 -3.88925,1.82678 -11.01154,2.1103 -15.22987,0.60626 z m 12.28116,-23.64295 c 1.59553,-1.59554 1.94872,-2.51102 1.94872,-5.05129 0,-4.24684 -2.61912,-7 -6.65922,-7 -3.45391,0 -5.04956,0.83638 -6.33388,3.31999 -2.71369,5.24769 0.42397,10.63545 6.21104,10.66519 2.31065,0.0119 3.27237,-0.37293 4.83334,-1.93389 z M 84.954197,159.46158 c -3.23871,-3.20833 -8.88171,-9.01164 -12.54001,-12.89623 -9.17727,-9.74497 -17.06344,-14.23118 -26.55801,-15.1081 -4.74381,-0.43813 -9.57481,-3.38106 -10.87891,-6.62716 -0.73008,-1.81728 -0.70371,-2.28409 0.17887,-3.16667 2.18226,-2.18226 8.6324,-0.70076 11.67063,2.68057 4.4385,4.93973 4.45553,4.95092 7.53299,4.95092 1.64503,0 3.18063,-0.30689 3.41245,-0.68198 0.23182,-0.37509 -0.72513,-2.70009 -2.12656,-5.16667 -1.40142,-2.46658 -3.00507,-5.68468 -3.56366,-7.15135 -0.88929,-2.33498 -1.42837,-2.79511 -4.3341,-3.69932 -2.84575,-0.88554 -3.53216,-1.45174 -4.81848,-3.97459 -1.8774,-3.68214 -2.10877,-9.801 -0.39545,-10.458461 3.26184,-1.251687 8.49279,5.457651 9.23397,11.843721 0.36224,3.12108 0.91762,4.59402 2.32694,6.17133 1.54631,1.73061 2.01795,1.93335 2.86407,1.23113 1.4177,-1.17659 2.07868,-12.60462 1.23302,-21.318261 -0.73294,-7.55214 -0.36368,-9.622401 2.37391,-13.309269 0.89044,-1.199211 2.37461,-2.67549 3.29816,-3.280619 2.42187,-1.586873 2.98996,-0.324307 2.75752,6.128573 -0.182,5.052757 -0.3458,5.562853 -3.10407,9.666667 l -2.91193,4.332429 0.42093,6.66667 c 0.23152,3.66667 0.94188,9.21667 1.5786,12.33333 0.98064,4.80017 1.35835,5.66667 2.47013,5.66667 1.85519,0 3.47919,-4.76688 4.2754,-12.54945 0.39326,-3.8439 1.16026,-7.31167 1.96383,-8.87892 2.91,-5.675529 7.14722,-7.304773 8.31934,-3.198855 0.79808,2.795655 -0.37835,6.780195 -3.16862,10.732115 -5.92249,8.38814 -6.03575,8.68014 -6.03575,15.56178 0,5.55736 0.22429,6.79003 1.8306,10.06087 2.10589,4.28807 4.00919,6.27117 5.4779,5.70757 0.84973,-0.32607 1.02483,-1.88332 1.02483,-9.11396 0,-9.46884 0.51651,-11.39079 3.74325,-13.92895 0.97345,-0.76571 2.44662,-1.3922 3.27372,-1.3922 1.21704,0 1.55483,0.43691 1.77129,2.29103 0.46342,3.96953 -1.02376,9.3187 -3.65158,13.13416 -1.88845,2.74196 -2.47001,4.24621 -2.47001,6.38891 0,4.03509 2.16851,9.19472 6.00719,14.29318 3.07522,4.08445 5.326143,8.72333 5.326143,10.97654 0,2.02445 -2.199163,0.63961 -7.808543,-4.91715 z m 39.373313,4.14153 c -0.66933,-1.74424 1.71512,-6.77024 5.51735,-11.62967 7.14169,-9.12738 7.80949,-13.01934 3.46711,-20.20623 -3.0107,-4.98287 -4.07017,-10.29707 -2.6004,-13.04336 1.02072,-1.90723 2.12166,-1.80068 4.17832,0.40439 3.00416,3.22096 3.45206,4.81227 3.74861,13.31808 0.29691,8.51644 1.01124,10.60223 3.05117,8.90923 2.43325,-2.01942 5.73973,-12.90066 5.73973,-18.88878 0,-4.76197 -1.22229,-7.86062 -3.83437,-9.72059 -3.6638,-2.60886 -6.52523,-12.69166 -4.24806,-14.968836 1.25594,-1.255941 4.06742,0.713091 6.3963,4.479666 1.74895,2.82865 2.03124,3.943 2.10737,8.31871 0.0777,4.46814 0.56435,7.39255 2.2274,13.38586 0.25436,0.91666 0.88748,1.66666 1.40692,1.66666 2.52702,0 5.2148,-10.98578 5.25452,-21.4768 0.0221,-5.838262 -0.0724,-6.252431 -1.90242,-8.336695 -3.07128,-3.497998 -4.86127,-11.182083 -3.65413,-15.686505 0.89421,-3.336757 4.24039,-0.868508 6.65408,4.908268 0.81288,1.945501 1.08974,5.885184 1.2741,18.130632 0.14464,9.60645 0.50276,15.91223 0.92784,16.33731 1.72896,1.72897 5.3875,-4.16366 5.39417,-8.68813 0.005,-3.3313 1.19469,-7.55417 2.56097,-9.08967 1.1845,-1.33119 3.48133,-2.634707 6.03026,-3.422347 l 1.59495,-0.492851 -0.32839,4.575058 c -0.41012,5.71365 -2.32552,9.71989 -5.22041,10.91899 -1.15271,0.47747 -2.77141,1.94542 -3.59711,3.2621 -0.82571,1.31669 -2.77463,4.40517 -4.33094,6.86329 -1.58117,2.49737 -2.6171,4.81326 -2.34789,5.24885 0.59004,0.95469 6.66255,0.36541 8.04332,-0.78053 0.51369,-0.42632 1.30727,-1.56169 1.76352,-2.52305 0.45624,-0.96135 1.87919,-2.27245 3.1621,-2.91355 3.73109,-1.8645 11.33257,-1.30605 11.33257,0.83256 0,1.02079 -3.93686,5.1853 -6.25794,6.61981 -1.37689,0.85097 -4.29139,1.57951 -8.00836,2.00186 -6.15026,0.69884 -11.10695,2.54505 -15.55734,5.79461 -1.38033,1.00789 -8.22721,7.47648 -15.21529,14.37466 -6.98808,6.89817 -13.07249,12.54214 -13.52092,12.54214 -0.44843,0 -0.99235,-0.46132 -1.20871,-1.02514 z m 103.56484,-8.41372 c -11.16138,-1.50664 -19.07502,-10.72848 -19.11379,-22.27348 -0.0362,-10.77386 5.21565,-18.55546 14.89368,-22.06787 4.28798,-1.55623 13.27889,-1.36157 17.85522,0.38656 7.32438,2.79787 12.55552,9.27847 13.78731,17.08041 2.6585,16.8385 -9.98399,29.22833 -27.42242,26.87438 z m 8.2709,-9.98283 c 10.52948,-3.50813 11.62063,-19.86664 1.67034,-25.04166 -2.52406,-1.31273 -8.99018,-1.2907 -11.5623,0.0394 -5.93976,3.07157 -8.57484,11.6177 -5.57798,18.09061 2.86596,6.19019 9.17502,9.00894 15.46994,6.91165 z m 69.58469,8.1743 c -7.96822,-3.61971 -11.0321,-12.82004 -6.94031,-20.84062 2.54491,-4.98844 7.97738,-7.54521 15.16828,-7.13889 3.75789,0.21234 5.13771,0.62206 7.41892,2.20294 3.3883,2.34809 5.35555,5.97086 5.85145,10.77569 l 0.36966,3.5816 h -11.09327 c -6.83252,0 -11.09327,0.25201 -11.09327,0.65615 0,0.36088 0.84282,1.59942 1.87293,2.75232 1.51555,1.6962 2.52371,2.1587 5.28359,2.42389 2.96213,0.28462 3.62295,0.11544 5.0248,-1.28641 l 1.61413,-1.61413 3.80283,1.2676 3.80282,1.26761 -1.60816,2.08535 c -2.66346,3.45377 -6.59724,5.11657 -12.06446,5.09964 -3.12957,-0.01 -5.6352,-0.42653 -7.40994,-1.23274 z m 13.01479,-17.63641 c 0,-0.48608 -0.71382,-1.55439 -1.58626,-2.37401 -2.93569,-2.75793 -9.1523,-1.67822 -11.0804,1.92447 -0.69155,1.29216 -0.507,1.33333 5.97654,1.33333 5.11136,0 6.69012,-0.20856 6.69012,-0.88379 z m 72.78802,17.87083 c -4.01703,-1.7448 -6.25549,-3.81103 -7.85866,-7.25404 -2.783,-5.9768 -1.73808,-12.29269 2.78147,-16.81224 3.21073,-3.21074 6.13221,-4.24781 11.95584,-4.24412 7.91447,0.005 13.12617,4.89604 14.11518,13.24662 l 0.40387,3.41008 h -11.09286 c -7.62309,0 -11.09286,0.22938 -11.09286,0.73333 0,0.40333 1.02,1.75333 2.26667,3 1.9272,1.9272 2.73048,2.26667 5.36363,2.26667 2.34402,0 3.4703,-0.37333 4.6325,-1.53553 1.50875,-1.50875 1.59177,-1.51671 4.76209,-0.45615 1.77461,0.59366 3.32807,1.38391 3.45214,1.75611 0.3996,1.1988 -2.40091,4.07978 -5.35678,5.51069 -3.4465,1.66842 -10.90883,1.86554 -14.33223,0.37858 z m 12.54531,-17.50536 c 0,-0.28509 -0.46344,-1.17999 -1.02987,-1.98868 -1.16774,-1.66719 -4.33285,-2.68894 -7.08041,-2.28568 -1.78845,0.26249 -5.22305,3.03547 -5.22305,4.21693 0,0.31666 3,0.57575 6.66667,0.57575 3.66666,0 6.66666,-0.23324 6.66666,-0.51832 z m 80.12655,17.1679 c -2.6913,-1.64084 -4.37141,-5.3078 -3.76558,-8.21864 1.15019,-5.52629 5.6893,-8.12655 13.25053,-7.59063 2.59701,0.18406 5.24683,0.55239 5.8885,0.81851 0.9646,0.40003 1.16667,0.12508 1.16667,-1.58749 0,-3.15995 -2.00551,-4.73799 -6.02142,-4.73799 -1.84511,0 -4.43174,0.45 -5.74808,1 -1.31633,0.55 -2.5006,1 -2.6317,1 -0.59332,0 -2.93975,-5.44834 -2.59009,-6.01411 0.76683,-1.24074 8.06346,-2.85592 12.78925,-2.83102 3.51408,0.0185 5.59362,0.41045 7.77136,1.46467 4.58583,2.21997 5.09734,3.89055 5.09734,16.64788 v 10.73258 h -4.33333 c -4.2531,0 -4.33333,-0.033 -4.33333,-1.78288 v -1.78287 l -1.5,1.40513 c -2.16253,2.02577 -4.72965,2.82763 -9.0434,2.82479 -2.62444,-0.002 -4.46858,-0.41624 -5.99672,-1.34793 z m 12.89337,-4.94827 c 1.27074,-0.53095 2.67423,-1.76381 3.11887,-2.7397 0.69923,-1.53463 0.63719,-1.89956 -0.45926,-2.7013 -1.99903,-1.46173 -7.41225,-1.19426 -9.05386,0.44736 -1.75101,1.751 -1.43635,4.01832 0.70766,5.09915 2.14364,1.08065 2.88044,1.06698 5.68659,-0.10551 z m 66.43476,5.28573 c -4.01703,-1.7448 -6.25548,-3.81103 -7.85866,-7.25404 -2.86159,-6.14558 -1.82707,-12.42551 2.77746,-16.86018 6.23673,-6.00668 17.17353,-5.69455 22.74331,0.64908 2.12896,2.42475 4.07112,8.82483 3.29318,10.85213 -0.2991,0.77943 -2.3721,0.95931 -11.05572,0.95931 -11.96081,0 -12.51196,0.26005 -8.33106,3.93094 3.05172,2.67944 7.51973,2.92008 9.90627,0.53353 1.50876,-1.50875 1.59177,-1.51671 4.76209,-0.45615 1.77461,0.59366 3.33297,1.39859 3.46302,1.78873 0.34171,1.02514 -3.7428,4.90488 -6.27968,5.96485 -2.82113,1.17875 -10.60172,1.11601 -13.42021,-0.1082 z m 12.54532,-17.50536 c 0,-0.28509 -0.46345,-1.17999 -1.02988,-1.98868 -2.08735,-2.98012 -8.76103,-3.05126 -11.13679,-0.11871 -0.64167,0.79205 -1.16667,1.70686 -1.16667,2.0329 0,0.32605 3,0.59281 6.66667,0.59281 3.66667,0 6.66667,-0.23324 6.66667,-0.51832 z m -313.99999,3.85166 v -14 h 4.66666 c 4.61998,0 4.66667,0.0179 4.66667,1.79139 v 1.7914 l 2.01157,-1.92721 c 1.68943,-1.61858 2.68695,-1.9702 6.22909,-2.19575 5.21813,-0.33227 7.75775,0.82909 9.49966,4.34413 1.0354,2.08938 1.29296,4.41388 1.48059,13.3627 l 0.22714,10.83334 h -5.05736 -5.05736 v -10 c 0,-9.11111 -0.11851,-10.11852 -1.33333,-11.33334 -1.71375,-1.71374 -4.02602,-1.69582 -6.24343,0.0484 l -1.75657,1.38172 v 9.95162 9.95161 h -4.66667 -4.66666 z m 72.66666,-7.69471 v -21.69471 l 5.06465,0.19471 5.06465,0.19471 0.10202,7.66666 0.10201,7.66667 9.83334,0.18449 9.83333,0.18449 v -8.01782 -8.01783 h 5 5 v 21.66667 21.66667 h -5 -5 v -9 -9 h -10.03708 -10.03708 l 0.0772,6.83333 c 0.0425,3.75834 0.0592,7.80834 0.0371,9 l -0.0401,2.16667 h -5 -5 z m 84.66667,7.69471 v -14 h 4.33333 c 4.22375,0 4.33333,0.0439 4.33333,1.73573 v 1.73572 l 2.35653,-2.06906 c 2.56005,-2.24775 6.47899,-2.80759 8.9316,-1.27591 1.22649,0.76596 1.20299,0.92597 -0.68531,4.66667 -2.12472,4.20904 -2.10028,4.18938 -3.9663,3.19071 -0.7017,-0.37554 -2.04245,-0.49039 -2.97945,-0.25522 -2.88479,0.72404 -3.65707,3.30842 -3.65707,12.23825 v 8.03311 h -4.33333 -4.33333 z m 25.99999,0 v -14 h 4.33334 4.33333 v 14 14 h -4.33333 -4.33334 z m 18.66667,3.66666 v -10.33333 h -2.33333 -2.33334 v -3.66667 -3.66666 h 2.33334 2.33333 v -5.33334 -5.33333 h 4.30529 4.30529 l 0.19471,5.16667 0.19471,5.16666 2.5,0.20691 2.5,0.20691 v 3.62643 3.62642 h -2.66667 -2.66666 v 10.33333 10.33334 h -4.33334 -4.33333 z m -18,-25.66666 c -1.70237,-1.70237 -1.76365,-5.40392 -0.11417,-6.89668 0.71702,-0.64889 2.34459,-1.10332 3.95161,-1.10332 2.15787,0 3.02301,0.36937 4.11417,1.75657 1.81451,2.30678 1.74445,3.94131 -0.25464,5.9404 -2.07319,2.07318 -5.78084,2.21915 -7.69697,0.30303 z m -344.99999,-5.25054 -6.66666,-0.41613 v -2.33333 c 0,-2.31223 0.0303,-2.33639 3.3492,-2.67096 6.00667,-0.60552 21.294,0.45221 23.57363,1.63105 2.26182,1.16963 2.70697,2.65558 0.99262,3.31343 -1.71507,0.65814 -13.94229,0.93201 -21.24879,0.47594 z M 97.42941,99.358844 c -6.352423,-0.903439 -9.333343,-3.159543 -9.333343,-7.063937 0,-2.264379 -1.11791,-4.333334 -2.34142,-4.333334 -0.52864,0 -1.4615,-0.763601 -2.07302,-1.696891 -0.93772,-1.431146 -0.97824,-1.946539 -0.25871,-3.290992 0.80037,-1.495504 1.27022,-1.607028 7.59648,-1.803109 3.708843,-0.114954 14.652333,-0.01431 24.318873,0.223661 15.20708,0.374364 17.72256,0.58348 18.66666,1.551793 1.01396,1.03996 0.90251,1.283747 -1.57552,3.446409 -1.89067,1.650044 -3.15999,3.623478 -4.36192,6.781541 -1.5148,3.980142 -1.95466,4.539931 -4.13244,5.259167 -3.0025,0.991611 -21.49983,1.637618 -26.50564,0.925692 z M 95.57128,68.804349 c -3.09776,-3.284584 -5.460603,-8.482543 -5.468693,-12.030474 -0.01,-4.206597 2.324383,-10.450892 6.133233,-16.408801 7.4218,-11.609359 8.85848,-17.560628 6.01186,-24.903503 -0.74626,-1.925 -1.13966,-3.500001 -0.87422,-3.500001 1.17245,0 6.43842,5.238688 8.49035,8.44637 6.39238,9.992894 5.02607,19.978326 -4.67109,34.13775 -3.61599,5.279934 -5.07631,8.738233 -5.10203,12.082549 -0.019,2.464934 -0.72367,4.666667 -1.49365,4.666667 -0.37228,0 -1.73387,-1.12075 -3.02576,-2.490557 z m 14.90675,1.443939 c -1.70792,-1.707917 -1.9335,-4.088798 -0.73466,-7.754024 1.0817,-3.307126 2.27121,-5.23113 7.3361,-11.866025 1.25956,-1.65 2.81035,-4.725 3.44619,-6.833334 0.63585,-2.108333 1.35855,-3.833333 1.60601,-3.833333 0.52951,0 2.22485,4.414201 3.32858,8.666667 1.37087,5.281768 -0.3348,13.317189 -3.78781,17.844312 -3.32549,4.359941 -8.77287,6.197277 -11.19441,3.775737 z"
       id="path1" />
  </g>
</svg>
